PathFileType	4	(X/Y/Z)	Patient5_TMGait_0pt45_1_right_05.trc.trc
DataRate	CameraRate	NumFrames	NumMarkers	Units	OrigDataRate	OrigDataStartFrame	OrigNumFrames
59.829059829060	59.829059829060	4	32	mm	59.829059829060	53	       141
Frame#	Time	R.ASIS			L.ASIS			Chest			R.Shoulder			Neck			L.Shoulder			L.Elbow			L.Wrist			R.Elbow			R.Wrist			L.Thigh.Superior			L.Thigh.Lateral			L.Thigh.Inferior			L.Patella			L.Shank.Superior			L.Shank.Lateral			L.Shank.Inferior			L.Heel			L.Midfoot.Lateral			L.Midfoot.Superior			L.Toe			R.Thigh.Superior			R.Thigh.Lateral			R.Thigh.Inferior			R.Patella			R.Shank.Superior			R.Shank.Lateral			R.Shank.Inferior			R.Heel			R.Midfoot.Lateral			R.Midfoot.Superior			R.Toe			
		X1	Y1	Z1	X2	Y2	Z2	X3	Y3	Z3	X4	Y4	Z4	X5	Y5	Z5	X6	Y6	Z6	X7	Y7	Z7	X8	Y8	Z8	X9	Y9	Z9	X10	Y10	Z10	X11	Y11	Z11	X12	Y12	Z12	X13	Y13	Z13	X14	Y14	Z14	X15	Y15	Z15	X16	Y16	Z16	X17	Y17	Z17	X18	Y18	Z18	X19	Y19	Z19	X20	Y20	Z20	X21	Y21	Z21	X22	Y22	Z22	X23	Y23	Z23	X24	Y24	Z24	X25	Y25	Z25	X26	Y26	Z26	X27	Y27	Z27	X28	Y28	Z28	X29	Y29	Z29	X30	Y30	Z30	X31	Y31	Z31	X32	Y32	Z32	

53	8.799142857143	968.089125263747	962.550244429562	588.242578247897	925.110128767946	962.265609133825	352.086138024324	1028.988362788042	1424.726835935845	488.770295707613	969.604987282901	1477.653851154575	676.310860218706	904.777030011894	1550.253461960657	505.457047971175	924.882390942190	1507.477758472059	314.716131616167	782.785424545304	1207.880726605380	198.312311981244	871.135090806387	936.876247910285	153.163514599035	935.103215162524	1157.496671291217	828.347199928909	1142.503392374394	981.021711896549	729.649563205055	1003.007012496494	788.608487500348	316.731657089008	966.304504099780	701.696341276190	267.663524322450	1065.644521637344	677.763392397325	319.148498165005	1118.551333913600	546.534756839056	301.067353134342	1069.415635814159	437.576236416395	332.176498101419	980.070808671325	376.906560595459	271.832613887865	1025.577384512559	319.955644660201	351.088408902130	872.575219929049	101.076825139007	382.991419182661	943.543316773472	71.624187879089	304.860722445455	1052.499901948194	125.855194941999	322.577885923359	1151.392164991136	77.975071626062	303.248704388945	953.159516485317	727.519017191647	594.861106061823	858.743991307447	657.511503885398	649.018424244645	923.970610338928	600.194000630562	566.244397485178	913.167186013426	504.979681980844	588.200975905868	863.028148760239	416.380005913642	547.274807605943	794.072722380521	346.918611362475	627.986835456906	841.315595646190	279.054880113293	538.145482953079	711.322705692166	53.511456217607	492.301194960329	789.615646711429	24.863497431688	565.814429936772	895.596823980749	87.524410508396	542.039845605725	999.681691688289	44.082580607504	541.541072839038	
54	8.815857142857	966.881696684420	961.408858147999	588.657935730655	926.194955700518	960.767778057546	352.002417397666	1030.873015229984	1423.411381086779	488.416831880950	970.843651864076	1476.962949045702	675.450826468856	906.784272247366	1549.422241310029	504.162123539993	928.176628431782	1506.126511958623	313.514597129462	786.102220911924	1206.552309631139	197.090785731014	873.640426637790	935.258288781108	152.391872286019	935.540214211573	1156.878427691875	827.387964010385	1142.635746541717	980.208088553620	728.540151100938	1001.148964105366	784.924086312507	317.564810239642	963.848936389314	697.896942518383	269.307022617077	1062.889768014871	673.762688402803	321.252694591179	1116.711685057597	546.295500056545	304.355198726315	1075.053482626051	436.894027231734	335.526766611907	990.717536661648	369.664171717436	274.721473538929	1041.557139435460	315.883958795695	353.455205059499	906.917650480391	85.759308929096	383.757234605259	980.489463465685	60.402711061946	306.640099123718	1085.132752958946	122.733828150610	324.144038858816	1187.364609686932	81.808523683222	306.287834419539	950.169195532696	726.582649894775	594.968691175259	854.807470461235	657.352691472068	648.652936164908	919.829208976213	599.314690027122	566.286579738659	908.344882519768	504.240803290298	588.253873219208	857.682519588067	416.130656376164	547.152636899487	787.780560155100	347.192858701896	627.612749540267	834.990330308402	278.912743287491	538.083699455303	703.780206090037	53.560331862593	492.230454785440	781.992390801193	24.972175996413	565.757724469925	887.922582785634	87.496046642664	542.021024431204	992.025174443404	44.071490129031	541.562347105819	
55	8.832571428571	965.954806988924	960.357834770139	589.140285709734	928.004703629561	959.116860425006	351.903331618924	1032.689544513618	1422.064154612270	487.871332954359	971.713901121373	1476.200758480742	674.248111589734	908.705092539083	1548.490592590708	502.461207661004	931.723673779406	1504.713719431096	311.956372120352	789.989575979898	1205.128313847775	195.271604492279	876.628284553359	933.442500066826	151.404857297036	935.652536218688	1156.082030501366	825.941229714077	1142.444976701992	978.890897571098	727.428770834576	999.630380230526	780.328084244437	318.213107597475	961.035835825361	693.184587895094	271.331893442636	1059.939189827454	668.601378908142	323.400273265550	1113.945178386186	544.955867009582	308.189369620925	1079.311457518116	435.604378679458	339.416388201353	999.936946749622	362.656587449271	278.171069369795	1055.760554253378	312.095019494152	356.331302590085	938.825239990699	72.943771066564	384.569362596728	1014.890215549961	51.153139112045	308.743251739658	1115.209834681774	120.373561515933	326.480815772684	1220.133942760396	85.733534998762	310.502256322794	947.383414523582	725.647685723890	595.031591645096	851.089118049875	657.221529928663	648.207189844546	915.882461076512	598.471037298217	566.259111585414	903.707925622184	503.498327953496	588.225150590242	852.461446552656	415.863208782511	546.968649691708	781.588880905874	347.504484755778	627.173998291925	828.767592355290	278.775764079861	538.003427673480	696.223575102995	53.612550558060	492.158862942880	774.383621571105	25.064890013399	565.673573140931	880.243216135700	87.520847052654	541.962839165836	984.364932941044	44.049649161803	541.564235371680	
56	8.849285714286	965.362035258196	959.401828407681	589.675638228265	930.610000216706	957.368324857890	351.801666218024	1034.414601182717	1420.733027183801	487.133992056613	972.159092280548	1475.415891170169	672.695884525954	910.491704024044	1547.475223459770	500.346559964209	935.449374376856	1503.234139304559	310.048113613541	794.381994039217	1203.600461986832	192.849605322094	880.154135980870	931.459557101533	150.214281928738	935.361270758575	1155.173931343479	824.056749390007	1141.914186896343	977.220624365572	726.340020187658	998.796731224805	775.083978873320	318.807086191164	958.354910738358	687.833679530407	273.745410044335	1057.175117031077	662.600030623075	325.837335686074	1110.688167370634	542.692022975798	312.809901294360	1082.292938940548	433.687417142662	343.968733472949	1007.525683171752	356.044834649848	282.292362063488	1067.720346830902	308.518228164031	359.879484259698	966.749148951379	62.782736542792	385.599501017940	1045.115635303321	43.930444623613	311.238374111407	1141.515595882970	118.435515868567	329.823248576486	1248.487897867267	88.993792020379	315.935971404081	944.972148858840	724.725272776875	595.071467529405	847.751060425985	657.105795640648	647.684088594791	912.362857268511	597.661869576819	566.183832603836	899.431269967962	502.723257409528	588.132923057226	847.527424792552	415.528462413612	546.727740059901	775.629496888433	347.842471593111	626.672638152809	822.751363337524	278.607800401611	537.901443537053	688.655762460455	53.661848484753	492.092548839318	766.795791741948	25.130456037333	565.569277736284	872.574229227933	87.584843437761	541.888000429605	976.715621770865	44.016095305475	541.546303827401	
